<?xml version="1.0" encoding="utf-8"?>
<svg width="780" height="795" viewBox="0 0 780 795" xmlns="http://www.w3.org/2000/svg">
<rect id="frame" x="0" y="0" width="780" height="795" fill="#ffffbf" stroke="none" stroke-width="0"/>

<!-- Association ACCESS -->
<g class="page_0_mlyHbN6X diagram_page" visibility="visible">
	<line x1="225" y1="169" x2="225" y2="51" stroke="#f46d43" stroke-width="2"/>
	<text x="230" y="110" fill="#4575b4" font-family="Verdana" font-size="12">0,N</text>
	<line x1="336" y1="51" x2="225" y2="51" stroke="#f46d43" stroke-width="2"/>
	<text x="263" y="68" fill="#4575b4" font-family="Verdana" font-size="12">1,1</text>
	<g>
		<path d="M243 26 a14 14 90 0 1 14 14 V51 h-64 V40 a14 14 90 0 1 14 -14" fill="#fdae61" stroke="#fdae61" stroke-width="0"/>
		<path d="M257 51 v11 a14 14 90 0 1 -14 14 H207 a14 14 90 0 1 -14 -14 V51 H64" fill="#fee090" stroke="#fee090" stroke-width="0"/>
		<rect x="193" y="26" width="64" height="50" fill="none" rx="14" stroke="#f46d43" stroke-width="2"/>
		<line x1="193" y1="51" x2="257" y2="51" stroke="#f46d43" stroke-width="1"/>
		<text x="200" y="43.75" fill="#000" font-family="Verdana" font-size="12">ACCESS</text>
	</g>
</g>

<!-- Association READ -->
<g class="page_0_mlyHbN6X diagram_page" visibility="visible">
	<line x1="225" y1="169" x2="135" y2="169" stroke="#f46d43" stroke-width="2"/>
	<text x="164" y="186" fill="#4575b4" font-family="Verdana" font-size="12">0,N</text>
	<line x1="44" y1="169" x2="135" y2="169" stroke="#f46d43" stroke-width="2"/>
	<text x="84" y="186" fill="#4575b4" font-family="Verdana" font-size="12">1,1</text>
	<g>
		<path d="M145 144 a14 14 90 0 1 14 14 V169 h-48 V158 a14 14 90 0 1 14 -14" fill="#fdae61" stroke="#fdae61" stroke-width="0"/>
		<path d="M159 169 v11 a14 14 90 0 1 -14 14 H125 a14 14 90 0 1 -14 -14 V169 H48" fill="#fee090" stroke="#fee090" stroke-width="0"/>
		<rect x="111" y="144" width="48" height="50" fill="none" rx="14" stroke="#f46d43" stroke-width="2"/>
		<line x1="111" y1="169" x2="159" y2="169" stroke="#f46d43" stroke-width="1"/>
		<text x="118" y="161.75" fill="#000" font-family="Verdana" font-size="12">READ</text>
	</g>
</g>

<!-- Association CHECK -->
<g class="page_0_mlyHbN6X diagram_page" visibility="visible">
	<line x1="225" y1="169" x2="336" y2="169" stroke="#f46d43" stroke-width="2"/>
	<text x="264" y="186" fill="#4575b4" font-family="Verdana" font-size="12">0,N</text>
	<line x1="453" y1="169" x2="336" y2="169" stroke="#f46d43" stroke-width="2"/>
	<text x="372" y="186" fill="#4575b4" font-family="Verdana" font-size="12">1,1</text>
	<g>
		<path d="M351 144 a14 14 90 0 1 14 14 V169 h-58 V158 a14 14 90 0 1 14 -14" fill="#fdae61" stroke="#fdae61" stroke-width="0"/>
		<path d="M365 169 v11 a14 14 90 0 1 -14 14 H321 a14 14 90 0 1 -14 -14 V169 H58" fill="#fee090" stroke="#fee090" stroke-width="0"/>
		<rect x="307" y="144" width="58" height="50" fill="none" rx="14" stroke="#f46d43" stroke-width="2"/>
		<line x1="307" y1="169" x2="365" y2="169" stroke="#f46d43" stroke-width="1"/>
		<text x="315" y="161.75" fill="#000" font-family="Verdana" font-size="12">CHECK</text>
	</g>
</g>

<!-- Association WRITE -->
<g class="page_0_mlyHbN6X diagram_page" visibility="visible">
	<line x1="225" y1="169" x2="225" y2="364" stroke="#f46d43" stroke-width="2"/>
	<text x="230" y="237" fill="#4575b4" font-family="Verdana" font-size="12">0,N</text>
	<line x1="336" y1="364" x2="225" y2="364" stroke="#f46d43" stroke-width="2"/>
	<text x="267" y="381" fill="#4575b4" font-family="Verdana" font-size="12">1,1</text>
	<g>
		<path d="M239 339 a14 14 90 0 1 14 14 V364 h-56 V353 a14 14 90 0 1 14 -14" fill="#fdae61" stroke="#fdae61" stroke-width="0"/>
		<path d="M253 364 v11 a14 14 90 0 1 -14 14 H211 a14 14 90 0 1 -14 -14 V364 H56" fill="#fee090" stroke="#fee090" stroke-width="0"/>
		<rect x="197" y="339" width="56" height="50" fill="none" rx="14" stroke="#f46d43" stroke-width="2"/>
		<line x1="197" y1="364" x2="253" y2="364" stroke="#f46d43" stroke-width="1"/>
		<text x="205" y="356.75" fill="#000" font-family="Verdana" font-size="12">WRITE</text>
	</g>
</g>

<!-- Association HAS -->
<g class="page_0_mlyHbN6X diagram_page" visibility="visible">
	<line x1="453" y1="533" x2="453" y2="364" stroke="#f46d43" stroke-width="2"/>
	<text x="458" y="491" fill="#4575b4" font-family="Verdana" font-size="12">0,N</text>
	<line x1="336" y1="364" x2="453" y2="364" stroke="#f46d43" stroke-width="2"/>
	<text x="384" y="381" fill="#4575b4" font-family="Verdana" font-size="12">1,1</text>
	<g>
		<path d="M459 339 a14 14 90 0 1 14 14 V364 h-40 V353 a14 14 90 0 1 14 -14" fill="#fdae61" stroke="#fdae61" stroke-width="0"/>
		<path d="M473 364 v11 a14 14 90 0 1 -14 14 H447 a14 14 90 0 1 -14 -14 V364 H40" fill="#fee090" stroke="#fee090" stroke-width="0"/>
		<rect x="433" y="339" width="40" height="50" fill="none" rx="14" stroke="#f46d43" stroke-width="2"/>
		<line x1="433" y1="364" x2="473" y2="364" stroke="#f46d43" stroke-width="1"/>
		<text x="440" y="356.75" fill="#000" font-family="Verdana" font-size="12">HAS</text>
	</g>
</g>

<!-- Association BELONGS TO -->
<g class="page_0_mlyHbN6X diagram_page" visibility="visible">
	<line x1="336" y1="364" x2="336" y2="533" stroke="#f46d43" stroke-width="2"/>
	<text x="341" y="500" fill="#4575b4" font-family="Verdana" font-size="12">0,N</text>
	<line x1="336" y1="643" x2="336" y2="533" stroke="#f46d43" stroke-width="2"/>
	<text x="341" y="584" fill="#4575b4" font-family="Verdana" font-size="12">1,1</text>
	<g>
		<path d="M370 508 a14 14 90 0 1 14 14 V533 h-96 V522 a14 14 90 0 1 14 -14" fill="#fdae61" stroke="#fdae61" stroke-width="0"/>
		<path d="M384 533 v11 a14 14 90 0 1 -14 14 H302 a14 14 90 0 1 -14 -14 V533 H96" fill="#fee090" stroke="#fee090" stroke-width="0"/>
		<rect x="288" y="508" width="96" height="50" fill="none" rx="14" stroke="#f46d43" stroke-width="2"/>
		<line x1="288" y1="533" x2="384" y2="533" stroke="#f46d43" stroke-width="1"/>
		<text x="296" y="525.75" fill="#000" font-family="Verdana" font-size="12">BELONGS TO</text>
	</g>
</g>

<!-- Association WORKS FOR -->
<g class="page_0_mlyHbN6X diagram_page" visibility="visible">
	<line x1="591" y1="643" x2="726" y2="643" stroke="#f46d43" stroke-width="2"/>
	<text x="654" y="660" fill="#4575b4" font-family="Verdana" font-size="12">1,1</text>
	<line x1="726" y1="744" x2="726" y2="643" stroke="#f46d43" stroke-width="2"/>
	<text x="731" y="694" fill="#4575b4" font-family="Verdana" font-size="12">1,1</text>
	<g>
		<path d="M757 618 a14 14 90 0 1 14 14 V643 h-90 V632 a14 14 90 0 1 14 -14" fill="#fdae61" stroke="#fdae61" stroke-width="0"/>
		<path d="M771 643 v11 a14 14 90 0 1 -14 14 H695 a14 14 90 0 1 -14 -14 V643 H90" fill="#fee090" stroke="#fee090" stroke-width="0"/>
		<rect x="681" y="618" width="90" height="50" fill="none" rx="14" stroke="#f46d43" stroke-width="2"/>
		<line x1="681" y1="643" x2="771" y2="643" stroke="#f46d43" stroke-width="1"/>
		<text x="688" y="635.75" fill="#000" font-family="Verdana" font-size="12">WORKS FOR</text>
	</g>
</g>

<!-- Entity NEWSLETTER -->
<g class="page_0_mlyHbN6X diagram_page" visibility="visible">
	<g>
		<rect x="289" y="9" width="94" height="25" fill="#abd9e9" stroke="#abd9e9" stroke-width="0" opacity="1"/>
		<rect x="289" y="34" width="94" height="59" fill="#e0f3f8" stroke="#e0f3f8" stroke-width="0" opacity="1"/>
		<rect x="289" y="9" width="94" height="84" fill="none" stroke="#74add1" stroke-width="2" opacity="1"/>
		<line x1="289" y1="34" x2="383" y2="34" stroke="#74add1" stroke-width="1"/>
	</g>
	<text x="295" y="26.75" fill="#000" font-family="Verdana" font-size="12">NEWSLETTER</text>
	<text x="294" y="51.8" fill="#000" font-family="Verdana" font-size="12">code</text>
	<line x1="294" y1="54" x2="323" y2="54" stroke="#000" stroke-width="1"/>
	<text x="294" y="68.8" fill="#000" font-family="Verdana" font-size="12">name</text>
	<text x="294" y="85.8" fill="#000" font-family="Verdana" font-size="12">email</text>
</g>

<!-- Entity MESSAGE -->
<g class="page_0_mlyHbN6X diagram_page" visibility="visible">
	<g>
		<rect x="9" y="110" width="70" height="25" fill="#abd9e9" stroke="#abd9e9" stroke-width="0" opacity="1"/>
		<rect x="9" y="135" width="70" height="93" fill="#e0f3f8" stroke="#e0f3f8" stroke-width="0" opacity="1"/>
		<rect x="9" y="110" width="70" height="118" fill="none" stroke="#74add1" stroke-width="2" opacity="1"/>
		<line x1="9" y1="135" x2="79" y2="135" stroke="#74add1" stroke-width="1"/>
	</g>
	<text x="14" y="127.75" fill="#000" font-family="Verdana" font-size="12">MESSAGE</text>
	<text x="14" y="152.8" fill="#000" font-family="Verdana" font-size="12">code</text>
	<line x1="14" y1="155" x2="43" y2="155" stroke="#000" stroke-width="1"/>
	<text x="14" y="169.8" fill="#000" font-family="Verdana" font-size="12">name</text>
	<text x="14" y="186.8" fill="#000" font-family="Verdana" font-size="12">email</text>
	<text x="14" y="203.8" fill="#000" font-family="Verdana" font-size="12">subject</text>
	<text x="14" y="220.8" fill="#000" font-family="Verdana" font-size="12">message</text>
</g>

<!-- Entity USER -->
<g class="page_0_mlyHbN6X diagram_page" visibility="visible">
	<g>
		<rect x="191" y="118" width="68" height="25" fill="#abd9e9" stroke="#abd9e9" stroke-width="0" opacity="1"/>
		<rect x="191" y="143" width="68" height="77" fill="#e0f3f8" stroke="#e0f3f8" stroke-width="0" opacity="1"/>
		<rect x="191" y="118" width="68" height="102" fill="none" stroke="#74add1" stroke-width="2" opacity="1"/>
		<line x1="191" y1="143" x2="259" y2="143" stroke="#74add1" stroke-width="1"/>
	</g>
	<text x="208" y="135.75" fill="#000" font-family="Verdana" font-size="12">USER</text>
	<text x="196" y="160.8" fill="#000" font-family="Verdana" font-size="12">code</text>
	<line x1="196" y1="163" x2="225" y2="163" stroke="#000" stroke-width="1"/>
	<text x="196" y="177.8" fill="#000" font-family="Verdana" font-size="12">name</text>
	<text x="196" y="194.8" fill="#000" font-family="Verdana" font-size="12">email</text>
	<text x="196" y="211.8" fill="#000" font-family="Verdana" font-size="12">password</text>
</g>

<!-- Entity CLASSBOOKING -->
<g class="page_0_mlyHbN6X diagram_page" visibility="visible">
	<g>
		<rect x="398" y="118" width="110" height="25" fill="#abd9e9" stroke="#abd9e9" stroke-width="0" opacity="1"/>
		<rect x="398" y="143" width="110" height="77" fill="#e0f3f8" stroke="#e0f3f8" stroke-width="0" opacity="1"/>
		<rect x="398" y="118" width="110" height="102" fill="none" stroke="#74add1" stroke-width="2" opacity="1"/>
		<line x1="398" y1="143" x2="508" y2="143" stroke="#74add1" stroke-width="1"/>
	</g>
	<text x="403" y="135.75" fill="#000" font-family="Verdana" font-size="12">CLASSBOOKING</text>
	<text x="403" y="160.8" fill="#000" font-family="Verdana" font-size="12">code</text>
	<line x1="403" y1="163" x2="432" y2="163" stroke="#000" stroke-width="1"/>
	<text x="403" y="177.8" fill="#000" font-family="Verdana" font-size="12">name</text>
	<text x="403" y="194.8" fill="#000" font-family="Verdana" font-size="12">email</text>
	<text x="403" y="211.8" fill="#000" font-family="Verdana" font-size="12">class</text>
</g>

<!-- Entity ARTICLE -->
<g class="page_0_mlyHbN6X diagram_page" visibility="visible">
	<g>
		<rect x="293" y="245" width="86" height="25" fill="#abd9e9" stroke="#abd9e9" stroke-width="0" opacity="1"/>
		<rect x="293" y="270" width="86" height="213" fill="#e0f3f8" stroke="#e0f3f8" stroke-width="0" opacity="1"/>
		<rect x="293" y="245" width="86" height="238" fill="none" stroke="#74add1" stroke-width="2" opacity="1"/>
		<line x1="293" y1="270" x2="379" y2="270" stroke="#74add1" stroke-width="1"/>
	</g>
	<text x="310" y="262.75" fill="#000" font-family="Verdana" font-size="12">ARTICLE</text>
	<text x="298" y="287.8" fill="#000" font-family="Verdana" font-size="12">code</text>
	<line x1="298" y1="290" x2="327" y2="290" stroke="#000" stroke-width="1"/>
	<text x="298" y="304.8" fill="#000" font-family="Verdana" font-size="12">mainImg</text>
	<text x="298" y="321.8" fill="#000" font-family="Verdana" font-size="12">introduction</text>
	<text x="298" y="338.8" fill="#000" font-family="Verdana" font-size="12">title1</text>
	<text x="298" y="355.8" fill="#000" font-family="Verdana" font-size="12">img1</text>
	<text x="298" y="372.8" fill="#000" font-family="Verdana" font-size="12">description1</text>
	<text x="298" y="389.8" fill="#000" font-family="Verdana" font-size="12">title2</text>
	<text x="298" y="406.8" fill="#000" font-family="Verdana" font-size="12">img2</text>
	<text x="298" y="423.8" fill="#000" font-family="Verdana" font-size="12">description2</text>
	<text x="298" y="440.8" fill="#000" font-family="Verdana" font-size="12">author_img</text>
	<text x="298" y="457.8" fill="#000" font-family="Verdana" font-size="12">authorname</text>
	<text x="298" y="474.8" fill="#000" font-family="Verdana" font-size="12">authorjob</text>
</g>

<!-- Entity TAG -->
<g class="page_0_mlyHbN6X diagram_page" visibility="visible">
	<g>
		<rect x="430" y="499" width="46" height="25" fill="#abd9e9" stroke="#abd9e9" stroke-width="0" opacity="1"/>
		<rect x="430" y="524" width="46" height="43" fill="#e0f3f8" stroke="#e0f3f8" stroke-width="0" opacity="1"/>
		<rect x="430" y="499" width="46" height="68" fill="none" stroke="#74add1" stroke-width="2" opacity="1"/>
		<line x1="430" y1="524" x2="476" y2="524" stroke="#74add1" stroke-width="1"/>
	</g>
	<text x="440" y="516.75" fill="#000" font-family="Verdana" font-size="12">TAG</text>
	<text x="435" y="541.8" fill="#000" font-family="Verdana" font-size="12">code</text>
	<line x1="435" y1="544" x2="464" y2="544" stroke="#000" stroke-width="1"/>
	<text x="435" y="558.8" fill="#000" font-family="Verdana" font-size="12">name</text>
</g>

<!-- Entity COMMENT -->
<g class="page_0_mlyHbN6X diagram_page" visibility="visible">
	<g>
		<rect x="299" y="592" width="74" height="25" fill="#abd9e9" stroke="#abd9e9" stroke-width="0" opacity="1"/>
		<rect x="299" y="617" width="74" height="77" fill="#e0f3f8" stroke="#e0f3f8" stroke-width="0" opacity="1"/>
		<rect x="299" y="592" width="74" height="102" fill="none" stroke="#74add1" stroke-width="2" opacity="1"/>
		<line x1="299" y1="617" x2="373" y2="617" stroke="#74add1" stroke-width="1"/>
	</g>
	<text x="305" y="609.75" fill="#000" font-family="Verdana" font-size="12">COMMENT</text>
	<text x="304" y="634.8" fill="#000" font-family="Verdana" font-size="12">code</text>
	<line x1="304" y1="637" x2="333" y2="637" stroke="#000" stroke-width="1"/>
	<text x="304" y="651.8" fill="#000" font-family="Verdana" font-size="12">name</text>
	<text x="304" y="668.8" fill="#000" font-family="Verdana" font-size="12">email</text>
	<text x="304" y="685.8" fill="#000" font-family="Verdana" font-size="12">message</text>
</g>

<!-- Entity TESTIMONIAL -->
<g class="page_0_mlyHbN6X diagram_page" visibility="visible">
	<g>
		<rect x="405" y="592" width="96" height="25" fill="#abd9e9" stroke="#abd9e9" stroke-width="0" opacity="1"/>
		<rect x="405" y="617" width="96" height="77" fill="#e0f3f8" stroke="#e0f3f8" stroke-width="0" opacity="1"/>
		<rect x="405" y="592" width="96" height="102" fill="none" stroke="#74add1" stroke-width="2" opacity="1"/>
		<line x1="405" y1="617" x2="501" y2="617" stroke="#74add1" stroke-width="1"/>
	</g>
	<text x="411" y="609.75" fill="#000" font-family="Verdana" font-size="12">TESTIMONIAL</text>
	<text x="410" y="634.8" fill="#000" font-family="Verdana" font-size="12">code</text>
	<line x1="410" y1="637" x2="439" y2="637" stroke="#000" stroke-width="1"/>
	<text x="410" y="651.8" fill="#000" font-family="Verdana" font-size="12">img</text>
	<text x="410" y="668.8" fill="#000" font-family="Verdana" font-size="12">name</text>
	<text x="410" y="685.8" fill="#000" font-family="Verdana" font-size="12">message</text>
</g>

<!-- Entity CLASSES -->
<g class="page_0_mlyHbN6X diagram_page" visibility="visible">
	<g>
		<rect x="533" y="567" width="116" height="25" fill="#abd9e9" stroke="#abd9e9" stroke-width="0" opacity="1"/>
		<rect x="533" y="592" width="116" height="127" fill="#e0f3f8" stroke="#e0f3f8" stroke-width="0" opacity="1"/>
		<rect x="533" y="567" width="116" height="152" fill="none" stroke="#74add1" stroke-width="2" opacity="1"/>
		<line x1="533" y1="592" x2="649" y2="592" stroke="#74add1" stroke-width="1"/>
	</g>
	<text x="563" y="584.75" fill="#000" font-family="Verdana" font-size="12">CLASSES</text>
	<text x="538" y="609.8" fill="#000" font-family="Verdana" font-size="12">code</text>
	<line x1="538" y1="612" x2="567" y2="612" stroke="#000" stroke-width="1"/>
	<text x="538" y="626.8" fill="#000" font-family="Verdana" font-size="12">name</text>
	<text x="538" y="643.8" fill="#000" font-family="Verdana" font-size="12">short_description</text>
	<text x="538" y="660.8" fill="#000" font-family="Verdana" font-size="12">age</text>
	<text x="538" y="677.8" fill="#000" font-family="Verdana" font-size="12">seats</text>
	<text x="538" y="694.8" fill="#000" font-family="Verdana" font-size="12">hours</text>
	<text x="538" y="711.8" fill="#000" font-family="Verdana" font-size="12">price</text>
</g>

<!-- Entity TEACHER -->
<g class="page_0_mlyHbN6X diagram_page" visibility="visible">
	<g>
		<rect x="692" y="702" width="68" height="25" fill="#abd9e9" stroke="#abd9e9" stroke-width="0" opacity="1"/>
		<rect x="692" y="727" width="68" height="59" fill="#e0f3f8" stroke="#e0f3f8" stroke-width="0" opacity="1"/>
		<rect x="692" y="702" width="68" height="84" fill="none" stroke="#74add1" stroke-width="2" opacity="1"/>
		<line x1="692" y1="727" x2="760" y2="727" stroke="#74add1" stroke-width="1"/>
	</g>
	<text x="697" y="719.75" fill="#000" font-family="Verdana" font-size="12">TEACHER</text>
	<text x="697" y="744.8" fill="#000" font-family="Verdana" font-size="12">code</text>
	<line x1="697" y1="747" x2="726" y2="747" stroke="#000" stroke-width="1"/>
	<text x="697" y="761.8" fill="#000" font-family="Verdana" font-size="12">name</text>
	<text x="697" y="778.8" fill="#000" font-family="Verdana" font-size="12">job</text>
</g>
</svg>