<?xml version="1.0" encoding="utf-8"?>
<svg width="1074" height="860" viewBox="0 0 1074 860" xmlns="http://www.w3.org/2000/svg">
<rect id="frame" x="0" y="0" width="1074" height="860" fill="#ffffbf" stroke="none" stroke-width="0"/>

<!-- Association READ -->
<g class="page_0_Y1SiwsKG diagram_page" visibility="visible">
	<line x1="192" y1="288" x2="192" y2="184" stroke="#66bd63" stroke-width="1"/>
	<text x="197" y="227" fill="#d73027" font-family="Verdana" font-size="12">0,N</text>
	<line x1="192" y1="71" x2="192" y2="184" stroke="#66bd63" stroke-width="1"/>
	<text x="197" y="150" fill="#d73027" font-family="Verdana" font-size="12">1,1</text>
	<g>
		<path d="M205 158 a14 14 90 0 1 14 14 V184 h-54 V172 a14 14 90 0 1 14 -14" fill="#a6d96a" stroke="#a6d96a" stroke-width="0"/>
		<path d="M219 184 v12 a14 14 90 0 1 -14 14 H179 a14 14 90 0 1 -14 -14 V184 H54" fill="#d9ef8b" stroke="#d9ef8b" stroke-width="0"/>
		<rect x="165" y="158" width="54" height="52" fill="none" rx="14" stroke="#66bd63" stroke-width="1.5"/>
		<line x1="165" y1="184" x2="219" y2="184" stroke="#66bd63" stroke-width="1"/>
		<text x="172" y="176.6" fill="#000" font-family="Georgia" font-size="14">READ</text>
	</g>
</g>

<!-- Association CHECK -->
<g class="page_0_Y1SiwsKG diagram_page" visibility="visible">
	<line x1="192" y1="288" x2="69" y2="288" stroke="#66bd63" stroke-width="1"/>
	<text x="130" y="305" fill="#d73027" font-family="Verdana" font-size="12">0,N</text>
	<line x1="69" y1="419" x2="69" y2="288" stroke="#66bd63" stroke-width="1"/>
	<text x="74" y="358" fill="#d73027" font-family="Verdana" font-size="12">1,1</text>
	<g>
		<path d="M87 262 a14 14 90 0 1 14 14 V288 h-64 V276 a14 14 90 0 1 14 -14" fill="#a6d96a" stroke="#a6d96a" stroke-width="0"/>
		<path d="M101 288 v12 a14 14 90 0 1 -14 14 H51 a14 14 90 0 1 -14 -14 V288 H64" fill="#d9ef8b" stroke="#d9ef8b" stroke-width="0"/>
		<rect x="37" y="262" width="64" height="52" fill="none" rx="14" stroke="#66bd63" stroke-width="1.5"/>
		<line x1="37" y1="288" x2="101" y2="288" stroke="#66bd63" stroke-width="1"/>
		<text x="45" y="280.6" fill="#000" font-family="Georgia" font-size="14">CHECK</text>
	</g>
</g>

<!-- Association ACCESS -->
<g class="page_0_Y1SiwsKG diagram_page" visibility="visible">
	<line x1="192" y1="288" x2="319" y2="288" stroke="#66bd63" stroke-width="1"/>
	<text x="232" y="305" fill="#d73027" font-family="Verdana" font-size="12">0,N</text>
	<line x1="319" y1="419" x2="319" y2="288" stroke="#66bd63" stroke-width="1"/>
	<text x="324" y="367" fill="#d73027" font-family="Verdana" font-size="12">1,1</text>
	<g>
		<path d="M339 262 a14 14 90 0 1 14 14 V288 h-68 V276 a14 14 90 0 1 14 -14" fill="#a6d96a" stroke="#a6d96a" stroke-width="0"/>
		<path d="M353 288 v12 a14 14 90 0 1 -14 14 H299 a14 14 90 0 1 -14 -14 V288 H68" fill="#d9ef8b" stroke="#d9ef8b" stroke-width="0"/>
		<rect x="285" y="262" width="68" height="52" fill="none" rx="14" stroke="#66bd63" stroke-width="1.5"/>
		<line x1="285" y1="288" x2="353" y2="288" stroke="#66bd63" stroke-width="1"/>
		<text x="293" y="280.6" fill="#000" font-family="Georgia" font-size="14">ACCESS</text>
	</g>
</g>

<!-- Association WRITE -->
<g class="page_0_Y1SiwsKG diagram_page" visibility="visible">
	<line x1="192" y1="288" x2="192" y2="419" stroke="#66bd63" stroke-width="1"/>
	<text x="197" y="358" fill="#d73027" font-family="Verdana" font-size="12">0,N</text>
	<line x1="192" y1="622" x2="192" y2="419" stroke="#66bd63" stroke-width="1"/>
	<text x="197" y="489" fill="#d73027" font-family="Verdana" font-size="12">1,1</text>
	<g>
		<path d="M209 393 a14 14 90 0 1 14 14 V419 h-62 V407 a14 14 90 0 1 14 -14" fill="#a6d96a" stroke="#a6d96a" stroke-width="0"/>
		<path d="M223 419 v12 a14 14 90 0 1 -14 14 H175 a14 14 90 0 1 -14 -14 V419 H62" fill="#d9ef8b" stroke="#d9ef8b" stroke-width="0"/>
		<rect x="161" y="393" width="62" height="52" fill="none" rx="14" stroke="#66bd63" stroke-width="1.5"/>
		<line x1="161" y1="419" x2="223" y2="419" stroke="#66bd63" stroke-width="1"/>
		<text x="168" y="411.6" fill="#000" font-family="Georgia" font-size="14">WRITE</text>
	</g>
</g>

<!-- Association WORKS FOR -->
<g class="page_0_Y1SiwsKG diagram_page" visibility="visible">
	<line x1="800" y1="622" x2="800" y2="419" stroke="#66bd63" stroke-width="1"/>
	<text x="805" y="525" fill="#d73027" font-family="Verdana" font-size="12">1,1</text>
	<line x1="679" y1="419" x2="800" y2="419" stroke="#66bd63" stroke-width="1"/>
	<text x="723" y="436" fill="#d73027" font-family="Verdana" font-size="12">1,1</text>
	<g>
		<path d="M836 393 a14 14 90 0 1 14 14 V419 h-100 V407 a14 14 90 0 1 14 -14" fill="#a6d96a" stroke="#a6d96a" stroke-width="0"/>
		<path d="M850 419 v12 a14 14 90 0 1 -14 14 H764 a14 14 90 0 1 -14 -14 V419 H100" fill="#d9ef8b" stroke="#d9ef8b" stroke-width="0"/>
		<rect x="750" y="393" width="100" height="52" fill="none" rx="14" stroke="#66bd63" stroke-width="1.5"/>
		<line x1="750" y1="419" x2="850" y2="419" stroke="#66bd63" stroke-width="1"/>
		<text x="758" y="411.6" fill="#000" font-family="Georgia" font-size="14">WORKS FOR</text>
	</g>
</g>

<!-- Association HAS -->
<g class="page_0_Y1SiwsKG diagram_page" visibility="visible">
	<line x1="69" y1="798" x2="69" y2="622" stroke="#66bd63" stroke-width="1"/>
	<text x="74" y="755" fill="#d73027" font-family="Verdana" font-size="12">0,N</text>
	<line x1="192" y1="622" x2="69" y2="622" stroke="#66bd63" stroke-width="1"/>
	<text x="121" y="639" fill="#d73027" font-family="Verdana" font-size="12">1,1</text>
	<g>
		<path d="M77 596 a14 14 90 0 1 14 14 V622 h-44 V610 a14 14 90 0 1 14 -14" fill="#a6d96a" stroke="#a6d96a" stroke-width="0"/>
		<path d="M91 622 v12 a14 14 90 0 1 -14 14 H61 a14 14 90 0 1 -14 -14 V622 H44" fill="#d9ef8b" stroke="#d9ef8b" stroke-width="0"/>
		<rect x="47" y="596" width="44" height="52" fill="none" rx="14" stroke="#66bd63" stroke-width="1.5"/>
		<line x1="47" y1="622" x2="91" y2="622" stroke="#66bd63" stroke-width="1"/>
		<text x="54" y="614.6" fill="#000" font-family="Georgia" font-size="14">HAS</text>
	</g>
</g>

<!-- Association BELONGS TO -->
<g class="page_0_Y1SiwsKG diagram_page" visibility="visible">
	<line x1="192" y1="622" x2="192" y2="798" stroke="#66bd63" stroke-width="1"/>
	<text x="197" y="764" fill="#d73027" font-family="Verdana" font-size="12">0,N</text>
	<line x1="319" y1="798" x2="192" y2="798" stroke="#66bd63" stroke-width="1"/>
	<text x="250" y="815" fill="#d73027" font-family="Verdana" font-size="12">1,1</text>
	<g>
		<path d="M230 772 a14 14 90 0 1 14 14 V798 h-104 V786 a14 14 90 0 1 14 -14" fill="#a6d96a" stroke="#a6d96a" stroke-width="0"/>
		<path d="M244 798 v12 a14 14 90 0 1 -14 14 H154 a14 14 90 0 1 -14 -14 V798 H104" fill="#d9ef8b" stroke="#d9ef8b" stroke-width="0"/>
		<rect x="140" y="772" width="104" height="52" fill="none" rx="14" stroke="#66bd63" stroke-width="1.5"/>
		<line x1="140" y1="798" x2="244" y2="798" stroke="#66bd63" stroke-width="1"/>
		<text x="148" y="790.6" fill="#000" font-family="Georgia" font-size="14">BELONGS TO</text>
	</g>
</g>

<!-- Entity MESSAGE -->
<g class="page_0_Y1SiwsKG diagram_page" visibility="visible">
	<g>
		<rect x="153" y="9" width="78" height="26" fill="#fdae61" stroke="#fdae61" stroke-width="0" opacity="1"/>
		<rect x="153" y="35" width="78" height="98" fill="#fee08b" stroke="#fee08b" stroke-width="0" opacity="1"/>
		<rect x="153" y="9" width="78" height="124" fill="none" stroke="#f46d43" stroke-width="1.5" opacity="1"/>
		<line x1="153" y1="35" x2="231" y2="35" stroke="#f46d43" stroke-width="1"/>
	</g>
	<text x="158" y="27.6" fill="#000" font-family="Georgia" font-size="14">MESSAGE</text>
	<text x="158" y="53.6" fill="#000" font-family="Georgia" font-size="14">code</text>
	<line x1="158" y1="56" x2="188" y2="56" stroke="#000" stroke-width="1"/>
	<text x="158" y="71.6" fill="#000" font-family="Georgia" font-size="14">name</text>
	<text x="158" y="89.6" fill="#000" font-family="Georgia" font-size="14">email</text>
	<text x="158" y="107.6" fill="#000" font-family="Georgia" font-size="14">subject</text>
	<text x="158" y="125.6" fill="#000" font-family="Georgia" font-size="14">message</text>
</g>

<!-- Entity USER -->
<g class="page_0_Y1SiwsKG diagram_page" visibility="visible">
	<g>
		<rect x="157" y="235" width="70" height="26" fill="#fdae61" stroke="#fdae61" stroke-width="0" opacity="1"/>
		<rect x="157" y="261" width="70" height="80" fill="#fee08b" stroke="#fee08b" stroke-width="0" opacity="1"/>
		<rect x="157" y="235" width="70" height="106" fill="none" stroke="#f46d43" stroke-width="1.5" opacity="1"/>
		<line x1="157" y1="261" x2="227" y2="261" stroke="#f46d43" stroke-width="1"/>
	</g>
	<text x="173" y="253.6" fill="#000" font-family="Georgia" font-size="14">USER</text>
	<text x="162" y="279.6" fill="#000" font-family="Georgia" font-size="14">code</text>
	<line x1="162" y1="282" x2="192" y2="282" stroke="#000" stroke-width="1"/>
	<text x="162" y="297.6" fill="#000" font-family="Georgia" font-size="14">name</text>
	<text x="162" y="315.6" fill="#000" font-family="Georgia" font-size="14">email</text>
	<text x="162" y="333.6" fill="#000" font-family="Georgia" font-size="14">password</text>
</g>

<!-- Entity GALLERY -->
<g class="page_0_Y1SiwsKG diagram_page" visibility="visible">
	<g>
		<rect x="436" y="235" width="76" height="26" fill="#fdae61" stroke="#fdae61" stroke-width="0" opacity="1"/>
		<rect x="436" y="261" width="76" height="80" fill="#fee08b" stroke="#fee08b" stroke-width="0" opacity="1"/>
		<rect x="436" y="235" width="76" height="106" fill="none" stroke="#f46d43" stroke-width="1.5" opacity="1"/>
		<line x1="436" y1="261" x2="512" y2="261" stroke="#f46d43" stroke-width="1"/>
	</g>
	<text x="442" y="253.6" fill="#000" font-family="Georgia" font-size="14">GALLERY</text>
	<text x="441" y="279.6" fill="#000" font-family="Georgia" font-size="14">code</text>
	<line x1="441" y1="282" x2="471" y2="282" stroke="#000" stroke-width="1"/>
	<text x="441" y="297.6" fill="#000" font-family="Georgia" font-size="14">name</text>
	<text x="441" y="315.6" fill="#000" font-family="Georgia" font-size="14">img</text>
	<text x="441" y="333.6" fill="#000" font-family="Georgia" font-size="14">category</text>
</g>

<!-- Entity CLASSBOOKING -->
<g class="page_0_Y1SiwsKG diagram_page" visibility="visible">
	<g>
		<rect x="9" y="366" width="120" height="26" fill="#fdae61" stroke="#fdae61" stroke-width="0" opacity="1"/>
		<rect x="9" y="392" width="120" height="80" fill="#fee08b" stroke="#fee08b" stroke-width="0" opacity="1"/>
		<rect x="9" y="366" width="120" height="106" fill="none" stroke="#f46d43" stroke-width="1.5" opacity="1"/>
		<line x1="9" y1="392" x2="129" y2="392" stroke="#f46d43" stroke-width="1"/>
	</g>
	<text x="14" y="384.6" fill="#000" font-family="Georgia" font-size="14">CLASSBOOKING</text>
	<text x="14" y="410.6" fill="#000" font-family="Georgia" font-size="14">code</text>
	<line x1="14" y1="413" x2="44" y2="413" stroke="#000" stroke-width="1"/>
	<text x="14" y="428.6" fill="#000" font-family="Georgia" font-size="14">name</text>
	<text x="14" y="446.6" fill="#000" font-family="Georgia" font-size="14">email</text>
	<text x="14" y="464.6" fill="#000" font-family="Georgia" font-size="14">class</text>
</g>

<!-- Entity NEWSLETTER -->
<g class="page_0_Y1SiwsKG diagram_page" visibility="visible">
	<g>
		<rect x="266" y="375" width="106" height="26" fill="#fdae61" stroke="#fdae61" stroke-width="0" opacity="1"/>
		<rect x="266" y="401" width="106" height="62" fill="#fee08b" stroke="#fee08b" stroke-width="0" opacity="1"/>
		<rect x="266" y="375" width="106" height="88" fill="none" stroke="#f46d43" stroke-width="1.5" opacity="1"/>
		<line x1="266" y1="401" x2="372" y2="401" stroke="#f46d43" stroke-width="1"/>
	</g>
	<text x="271" y="393.6" fill="#000" font-family="Georgia" font-size="14">NEWSLETTER</text>
	<text x="271" y="419.6" fill="#000" font-family="Georgia" font-size="14">code</text>
	<line x1="271" y1="422" x2="301" y2="422" stroke="#000" stroke-width="1"/>
	<text x="271" y="437.6" fill="#000" font-family="Georgia" font-size="14">name</text>
	<text x="271" y="455.6" fill="#000" font-family="Georgia" font-size="14">email</text>
</g>

<!-- Entity TEACHER -->
<g class="page_0_Y1SiwsKG diagram_page" visibility="visible">
	<g>
		<rect x="640" y="366" width="78" height="26" fill="#fdae61" stroke="#fdae61" stroke-width="0" opacity="1"/>
		<rect x="640" y="392" width="78" height="80" fill="#fee08b" stroke="#fee08b" stroke-width="0" opacity="1"/>
		<rect x="640" y="366" width="78" height="106" fill="none" stroke="#f46d43" stroke-width="1.5" opacity="1"/>
		<line x1="640" y1="392" x2="718" y2="392" stroke="#f46d43" stroke-width="1"/>
	</g>
	<text x="645" y="384.6" fill="#000" font-family="Georgia" font-size="14">TEACHER</text>
	<text x="645" y="410.6" fill="#000" font-family="Georgia" font-size="14">code</text>
	<line x1="645" y1="413" x2="675" y2="413" stroke="#000" stroke-width="1"/>
	<text x="645" y="428.6" fill="#000" font-family="Georgia" font-size="14">img</text>
	<text x="645" y="446.6" fill="#000" font-family="Georgia" font-size="14">name</text>
	<text x="645" y="464.6" fill="#000" font-family="Georgia" font-size="14">job</text>
</g>

<!-- Entity TESTIMONIAL -->
<g class="page_0_Y1SiwsKG diagram_page" visibility="visible">
	<g>
		<rect x="957" y="366" width="108" height="26" fill="#fdae61" stroke="#fdae61" stroke-width="0" opacity="1"/>
		<rect x="957" y="392" width="108" height="80" fill="#fee08b" stroke="#fee08b" stroke-width="0" opacity="1"/>
		<rect x="957" y="366" width="108" height="106" fill="none" stroke="#f46d43" stroke-width="1.5" opacity="1"/>
		<line x1="957" y1="392" x2="1065" y2="392" stroke="#f46d43" stroke-width="1"/>
	</g>
	<text x="962" y="384.6" fill="#000" font-family="Georgia" font-size="14">TESTIMONIAL</text>
	<text x="962" y="410.6" fill="#000" font-family="Georgia" font-size="14">code</text>
	<line x1="962" y1="413" x2="992" y2="413" stroke="#000" stroke-width="1"/>
	<text x="962" y="428.6" fill="#000" font-family="Georgia" font-size="14">img</text>
	<text x="962" y="446.6" fill="#000" font-family="Georgia" font-size="14">name</text>
	<text x="962" y="464.6" fill="#000" font-family="Georgia" font-size="14">message</text>
</g>

<!-- Entity ARTICLE -->
<g class="page_0_Y1SiwsKG diagram_page" visibility="visible">
	<g>
		<rect x="147" y="497" width="90" height="26" fill="#fdae61" stroke="#fdae61" stroke-width="0" opacity="1"/>
		<rect x="147" y="523" width="90" height="224" fill="#fee08b" stroke="#fee08b" stroke-width="0" opacity="1"/>
		<rect x="147" y="497" width="90" height="250" fill="none" stroke="#f46d43" stroke-width="1.5" opacity="1"/>
		<line x1="147" y1="523" x2="237" y2="523" stroke="#f46d43" stroke-width="1"/>
	</g>
	<text x="162" y="515.6" fill="#000" font-family="Georgia" font-size="14">ARTICLE</text>
	<text x="152" y="541.6" fill="#000" font-family="Georgia" font-size="14">code</text>
	<line x1="152" y1="544" x2="182" y2="544" stroke="#000" stroke-width="1"/>
	<text x="152" y="559.6" fill="#000" font-family="Georgia" font-size="14">mainImg</text>
	<text x="152" y="577.6" fill="#000" font-family="Georgia" font-size="14">introduction</text>
	<text x="152" y="595.6" fill="#000" font-family="Georgia" font-size="14">title1</text>
	<text x="152" y="613.6" fill="#000" font-family="Georgia" font-size="14">img1</text>
	<text x="152" y="631.6" fill="#000" font-family="Georgia" font-size="14">description1</text>
	<text x="152" y="649.6" fill="#000" font-family="Georgia" font-size="14">title2</text>
	<text x="152" y="667.6" fill="#000" font-family="Georgia" font-size="14">img2</text>
	<text x="152" y="685.6" fill="#000" font-family="Georgia" font-size="14">description2</text>
	<text x="152" y="703.6" fill="#000" font-family="Georgia" font-size="14">author_img</text>
	<text x="152" y="721.6" fill="#000" font-family="Georgia" font-size="14">authorname</text>
	<text x="152" y="739.6" fill="#000" font-family="Georgia" font-size="14">authorjob</text>
</g>

<!-- Entity CLASSES -->
<g class="page_0_Y1SiwsKG diagram_page" visibility="visible">
	<g>
		<rect x="739" y="533" width="122" height="26" fill="#fdae61" stroke="#fdae61" stroke-width="0" opacity="1"/>
		<rect x="739" y="559" width="122" height="152" fill="#fee08b" stroke="#fee08b" stroke-width="0" opacity="1"/>
		<rect x="739" y="533" width="122" height="178" fill="none" stroke="#f46d43" stroke-width="1.5" opacity="1"/>
		<line x1="739" y1="559" x2="861" y2="559" stroke="#f46d43" stroke-width="1"/>
	</g>
	<text x="770" y="551.6" fill="#000" font-family="Georgia" font-size="14">CLASSES</text>
	<text x="744" y="577.6" fill="#000" font-family="Georgia" font-size="14">code</text>
	<line x1="744" y1="580" x2="774" y2="580" stroke="#000" stroke-width="1"/>
	<text x="744" y="595.6" fill="#000" font-family="Georgia" font-size="14">img</text>
	<text x="744" y="613.6" fill="#000" font-family="Georgia" font-size="14">name</text>
	<text x="744" y="631.6" fill="#000" font-family="Georgia" font-size="14">short_description</text>
	<text x="744" y="649.6" fill="#000" font-family="Georgia" font-size="14">age</text>
	<text x="744" y="667.6" fill="#000" font-family="Georgia" font-size="14">seats</text>
	<text x="744" y="685.6" fill="#000" font-family="Georgia" font-size="14">hours</text>
	<text x="744" y="703.6" fill="#000" font-family="Georgia" font-size="14">price</text>
</g>

<!-- Entity TAG -->
<g class="page_0_Y1SiwsKG diagram_page" visibility="visible">
	<g>
		<rect x="46" y="763" width="46" height="26" fill="#fdae61" stroke="#fdae61" stroke-width="0" opacity="1"/>
		<rect x="46" y="789" width="46" height="44" fill="#fee08b" stroke="#fee08b" stroke-width="0" opacity="1"/>
		<rect x="46" y="763" width="46" height="70" fill="none" stroke="#f46d43" stroke-width="1.5" opacity="1"/>
		<line x1="46" y1="789" x2="92" y2="789" stroke="#f46d43" stroke-width="1"/>
	</g>
	<text x="55" y="781.6" fill="#000" font-family="Georgia" font-size="14">TAG</text>
	<text x="51" y="807.6" fill="#000" font-family="Georgia" font-size="14">code</text>
	<line x1="51" y1="810" x2="81" y2="810" stroke="#000" stroke-width="1"/>
	<text x="51" y="825.6" fill="#000" font-family="Georgia" font-size="14">name</text>
</g>

<!-- Entity COMMENT -->
<g class="page_0_Y1SiwsKG diagram_page" visibility="visible">
	<g>
		<rect x="276" y="745" width="86" height="26" fill="#fdae61" stroke="#fdae61" stroke-width="0" opacity="1"/>
		<rect x="276" y="771" width="86" height="80" fill="#fee08b" stroke="#fee08b" stroke-width="0" opacity="1"/>
		<rect x="276" y="745" width="86" height="106" fill="none" stroke="#f46d43" stroke-width="1.5" opacity="1"/>
		<line x1="276" y1="771" x2="362" y2="771" stroke="#f46d43" stroke-width="1"/>
	</g>
	<text x="282" y="763.6" fill="#000" font-family="Georgia" font-size="14">COMMENT</text>
	<text x="281" y="789.6" fill="#000" font-family="Georgia" font-size="14">code</text>
	<line x1="281" y1="792" x2="311" y2="792" stroke="#000" stroke-width="1"/>
	<text x="281" y="807.6" fill="#000" font-family="Georgia" font-size="14">name</text>
	<text x="281" y="825.6" fill="#000" font-family="Georgia" font-size="14">email</text>
	<text x="281" y="843.6" fill="#000" font-family="Georgia" font-size="14">message</text>
</g>
</svg>