<?xml version="1.0" standalone="no"?>
<!DOCTYPE svg PUBLIC "-//W3C//DTD SVG 1.1//EN"
"http://www.w3.org/Graphics/SVG/1.1/DTD/svg11.dtd">

<svg width="578" height="466" view_box="0 0 578 466"
xmlns="http://www.w3.org/2000/svg"
xmlns:link="http://www.w3.org/1999/xlink">\n\n<desc>Généré par Mocodo 2.3.7 le Mon, 18 Jul 2022 02:40:51</desc>

<rect id="frame" x="0" y="0" width="578" height="466" fill="#f7f7f7" stroke="none" stroke-width="0"/>

<!-- Association ACCESS -->
<line x1="414" y1="229" x2="522" y2="229" stroke="#7fbc41" stroke-width="2"/>
<text x="453" y="246.0" fill="#c51b7d" font-family="Verdana" font-size="12">0,N</text>
<line x1="522" y1="60" x2="522" y2="229" stroke="#7fbc41" stroke-width="2"/>
<text x="527.0" y="119" fill="#c51b7d" font-family="Verdana" font-size="12">1,1</text>
<g id="association-ACCESS">
	<path d="M 540 204 a 14 14 90 0 1 14 14 V 229 h -64 V 218 a 14 14 90 0 1 14 -14" fill="#b8e186" stroke="#b8e186" stroke-width="0"/>
	<path d="M 554 229.0 v 11 a 14 14 90 0 1 -14 14 H 504 a 14 14 90 0 1 -14 -14 V 229.0 H 64" fill="#e6f5d0" stroke="#e6f5d0" stroke-width="0"/>
	<rect x="490" y="204" width="64" height="50" fill="none" rx="14" stroke="#7fbc41" stroke-width="2"/>
	<line x1="490" y1="229" x2="554" y2="229" stroke="#7fbc41" stroke-width="1"/>
	<text x="497" y="221.7" fill="#000000" font-family="Verdana" font-size="12">ACCESS</text>
</g>

<!-- Association BELONGS TO -->
<line x1="163" y1="229" x2="163" y2="60" stroke="#7fbc41" stroke-width="2"/>
<text x="168.0" y="102" fill="#c51b7d" font-family="Verdana" font-size="12">0,N</text>
<line x1="46" y1="60" x2="163" y2="60" stroke="#7fbc41" stroke-width="2"/>
<text x="88" y="77.0" fill="#c51b7d" font-family="Verdana" font-size="12">1,1</text>
<g id="association-BELONGS TO">
	<path d="M 197 35 a 14 14 90 0 1 14 14 V 60 h -96 V 49 a 14 14 90 0 1 14 -14" fill="#b8e186" stroke="#b8e186" stroke-width="0"/>
	<path d="M 211 60.0 v 11 a 14 14 90 0 1 -14 14 H 129 a 14 14 90 0 1 -14 -14 V 60.0 H 96" fill="#e6f5d0" stroke="#e6f5d0" stroke-width="0"/>
	<rect x="115" y="35" width="96" height="50" fill="none" rx="14" stroke="#7fbc41" stroke-width="2"/>
	<line x1="115" y1="60" x2="211" y2="60" stroke="#7fbc41" stroke-width="1"/>
	<text x="122" y="52.7" fill="#000000" font-family="Verdana" font-size="12">BELONGS TO</text>
</g>

<!-- Association READ -->
<line x1="414" y1="229" x2="414" y2="398" stroke="#7fbc41" stroke-width="2"/>
<text x="419.0" y="297" fill="#c51b7d" font-family="Verdana" font-size="12">0,N</text>
<line x1="522" y1="398" x2="414" y2="398" stroke="#7fbc41" stroke-width="2"/>
<text x="461" y="415.0" fill="#c51b7d" font-family="Verdana" font-size="12">1,1</text>
<g id="association-READ">
	<path d="M 424 373 a 14 14 90 0 1 14 14 V 398 h -48 V 387 a 14 14 90 0 1 14 -14" fill="#b8e186" stroke="#b8e186" stroke-width="0"/>
	<path d="M 438 398.0 v 11 a 14 14 90 0 1 -14 14 H 404 a 14 14 90 0 1 -14 -14 V 398.0 H 48" fill="#e6f5d0" stroke="#e6f5d0" stroke-width="0"/>
	<rect x="390" y="373" width="48" height="50" fill="none" rx="14" stroke="#7fbc41" stroke-width="2"/>
	<line x1="390" y1="398" x2="438" y2="398" stroke="#7fbc41" stroke-width="1"/>
	<text x="397" y="390.7" fill="#000000" font-family="Verdana" font-size="12">READ</text>
</g>

<!-- Association WRITE -->
<line x1="414" y1="229" x2="298" y2="229" stroke="#7fbc41" stroke-width="2"/>
<text x="353" y="246.0" fill="#c51b7d" font-family="Verdana" font-size="12">0,N</text>
<line x1="163" y1="229" x2="298" y2="229" stroke="#7fbc41" stroke-width="2"/>
<text x="211" y="246.0" fill="#c51b7d" font-family="Verdana" font-size="12">1,1</text>
<g id="association-WRITE">
	<path d="M 312 204 a 14 14 90 0 1 14 14 V 229 h -56 V 218 a 14 14 90 0 1 14 -14" fill="#b8e186" stroke="#b8e186" stroke-width="0"/>
	<path d="M 326 229.0 v 11 a 14 14 90 0 1 -14 14 H 284 a 14 14 90 0 1 -14 -14 V 229.0 H 56" fill="#e6f5d0" stroke="#e6f5d0" stroke-width="0"/>
	<rect x="270" y="204" width="56" height="50" fill="none" rx="14" stroke="#7fbc41" stroke-width="2"/>
	<line x1="270" y1="229" x2="326" y2="229" stroke="#7fbc41" stroke-width="1"/>
	<text x="277" y="221.7" fill="#000000" font-family="Verdana" font-size="12">WRITE</text>
</g>

<!-- Association HAS -->
<line x1="46" y1="398" x2="163" y2="398" stroke="#7fbc41" stroke-width="2"/>
<text x="74" y="415.0" fill="#c51b7d" font-family="Verdana" font-size="12">0,N</text>
<line x1="163" y1="229" x2="163" y2="398" stroke="#7fbc41" stroke-width="2"/>
<text x="168.0" y="365" fill="#c51b7d" font-family="Verdana" font-size="12">1,1</text>
<g id="association-HAS">
	<path d="M 169 373 a 14 14 90 0 1 14 14 V 398 h -40 V 387 a 14 14 90 0 1 14 -14" fill="#b8e186" stroke="#b8e186" stroke-width="0"/>
	<path d="M 183 398.0 v 11 a 14 14 90 0 1 -14 14 H 157 a 14 14 90 0 1 -14 -14 V 398.0 H 40" fill="#e6f5d0" stroke="#e6f5d0" stroke-width="0"/>
	<rect x="143" y="373" width="40" height="50" fill="none" rx="14" stroke="#7fbc41" stroke-width="2"/>
	<line x1="143" y1="398" x2="183" y2="398" stroke="#7fbc41" stroke-width="1"/>
	<text x="150" y="390.7" fill="#000000" font-family="Verdana" font-size="12">HAS</text>
</g>

<!-- Association CHECK -->
<line x1="414" y1="229" x2="414" y2="60" stroke="#7fbc41" stroke-width="2"/>
<text x="419.0" y="170" fill="#c51b7d" font-family="Verdana" font-size="12">0,N</text>
<line x1="298" y1="60" x2="414" y2="60" stroke="#7fbc41" stroke-width="2"/>
<text x="358" y="77.0" fill="#c51b7d" font-family="Verdana" font-size="12">1,1</text>
<g id="association-CHECK">
	<path d="M 429 35 a 14 14 90 0 1 14 14 V 60 h -58 V 49 a 14 14 90 0 1 14 -14" fill="#b8e186" stroke="#b8e186" stroke-width="0"/>
	<path d="M 443 60.0 v 11 a 14 14 90 0 1 -14 14 H 399 a 14 14 90 0 1 -14 -14 V 60.0 H 58" fill="#e6f5d0" stroke="#e6f5d0" stroke-width="0"/>
	<rect x="385" y="35" width="58" height="50" fill="none" rx="14" stroke="#7fbc41" stroke-width="2"/>
	<line x1="385" y1="60" x2="443" y2="60" stroke="#7fbc41" stroke-width="1"/>
	<text x="392" y="52.7" fill="#000000" font-family="Verdana" font-size="12">CHECK</text>
</g>

<!-- Entity COMMENT -->
<g id="entity-COMMENT">
	<g id="frame-COMMENT">
		<rect x="9" y="9" width="74" height="25" fill="#f1b6da" stroke="#f1b6da" stroke-width="0"/>
		<rect x="9" y="34.0" width="74" height="77" fill="#fde0ef" stroke="#fde0ef" stroke-width="0"/>
		<rect x="9" y="9" width="74" height="102" fill="none" stroke="#de77ae" stroke-width="2"/>
		<line x1="9" y1="34" x2="83" y2="34" stroke="#de77ae" stroke-width="1"/>
	</g>
	<text x="14" y="26.7" fill="#000000" font-family="Verdana" font-size="12">COMMENT</text>
	<text x="14" y="51.7" fill="#000000" font-family="Verdana" font-size="12">code</text>
	<line x1="14" y1="54" x2="43" y2="54" stroke="#000000" stroke-width="1"/>
	<text x="14" y="68.8" fill="#000000" font-family="Verdana" font-size="12">name</text>
	<text x="14" y="85.8" fill="#000000" font-family="Verdana" font-size="12">email</text>
	<text x="14" y="102.8" fill="#000000" font-family="Verdana" font-size="12">message</text>
</g>

<!-- Entity TAG -->
<g id="entity-TAG">
	<g id="frame-TAG">
		<rect x="23" y="364" width="46" height="25" fill="#f1b6da" stroke="#f1b6da" stroke-width="0"/>
		<rect x="23" y="389.0" width="46" height="43" fill="#fde0ef" stroke="#fde0ef" stroke-width="0"/>
		<rect x="23" y="364" width="46" height="68" fill="none" stroke="#de77ae" stroke-width="2"/>
		<line x1="23" y1="389" x2="69" y2="389" stroke="#de77ae" stroke-width="1"/>
	</g>
	<text x="33" y="381.7" fill="#000000" font-family="Verdana" font-size="12">TAG</text>
	<text x="28" y="406.8" fill="#000000" font-family="Verdana" font-size="12">code</text>
	<line x1="28" y1="409" x2="57" y2="409" stroke="#000000" stroke-width="1"/>
	<text x="28" y="423.8" fill="#000000" font-family="Verdana" font-size="12">name</text>
</g>

<!-- Entity USER -->
<g id="entity-USER">
	<g id="frame-USER">
		<rect x="380" y="178" width="68" height="25" fill="#f1b6da" stroke="#f1b6da" stroke-width="0"/>
		<rect x="380" y="203.0" width="68" height="77" fill="#fde0ef" stroke="#fde0ef" stroke-width="0"/>
		<rect x="380" y="178" width="68" height="102" fill="none" stroke="#de77ae" stroke-width="2"/>
		<line x1="380" y1="203" x2="448" y2="203" stroke="#de77ae" stroke-width="1"/>
	</g>
	<text x="397" y="195.7" fill="#000000" font-family="Verdana" font-size="12">USER</text>
	<text x="385" y="220.7" fill="#000000" font-family="Verdana" font-size="12">code</text>
	<line x1="385" y1="223" x2="414" y2="223" stroke="#000000" stroke-width="1"/>
	<text x="385" y="237.8" fill="#000000" font-family="Verdana" font-size="12">name</text>
	<text x="385" y="254.8" fill="#000000" font-family="Verdana" font-size="12">email</text>
	<text x="385" y="271.8" fill="#000000" font-family="Verdana" font-size="12">password</text>
</g>

<!-- Entity ARTICLE -->
<g id="entity-ARTICLE">
	<g id="frame-ARTICLE">
		<rect x="120" y="110" width="86" height="25" fill="#f1b6da" stroke="#f1b6da" stroke-width="0"/>
		<rect x="120" y="135.0" width="86" height="213" fill="#fde0ef" stroke="#fde0ef" stroke-width="0"/>
		<rect x="120" y="110" width="86" height="238" fill="none" stroke="#de77ae" stroke-width="2"/>
		<line x1="120" y1="135" x2="206" y2="135" stroke="#de77ae" stroke-width="1"/>
	</g>
	<text x="136" y="127.7" fill="#000000" font-family="Verdana" font-size="12">ARTICLE</text>
	<text x="125" y="152.7" fill="#000000" font-family="Verdana" font-size="12">code</text>
	<line x1="125" y1="155" x2="154" y2="155" stroke="#000000" stroke-width="1"/>
	<text x="125" y="169.7" fill="#000000" font-family="Verdana" font-size="12">mainImg</text>
	<text x="125" y="186.7" fill="#000000" font-family="Verdana" font-size="12">introduction</text>
	<text x="125" y="203.7" fill="#000000" font-family="Verdana" font-size="12">title1</text>
	<text x="125" y="220.7" fill="#000000" font-family="Verdana" font-size="12">img1</text>
	<text x="125" y="237.8" fill="#000000" font-family="Verdana" font-size="12">description1</text>
	<text x="125" y="254.8" fill="#000000" font-family="Verdana" font-size="12">title2</text>
	<text x="125" y="271.8" fill="#000000" font-family="Verdana" font-size="12">img2</text>
	<text x="125" y="288.8" fill="#000000" font-family="Verdana" font-size="12">description2</text>
	<text x="125" y="305.8" fill="#000000" font-family="Verdana" font-size="12">author_img</text>
	<text x="125" y="322.8" fill="#000000" font-family="Verdana" font-size="12">authorname</text>
	<text x="125" y="339.8" fill="#000000" font-family="Verdana" font-size="12">authorjob</text>
</g>

<!-- Entity MESSAGE -->
<g id="entity-MESSAGE">
	<g id="frame-MESSAGE">
		<rect x="487" y="339" width="70" height="25" fill="#f1b6da" stroke="#f1b6da" stroke-width="0"/>
		<rect x="487" y="364.0" width="70" height="93" fill="#fde0ef" stroke="#fde0ef" stroke-width="0"/>
		<rect x="487" y="339" width="70" height="118" fill="none" stroke="#de77ae" stroke-width="2"/>
		<line x1="487" y1="364" x2="557" y2="364" stroke="#de77ae" stroke-width="1"/>
	</g>
	<text x="492" y="356.7" fill="#000000" font-family="Verdana" font-size="12">MESSAGE</text>
	<text x="492" y="381.7" fill="#000000" font-family="Verdana" font-size="12">code</text>
	<line x1="492" y1="384" x2="521" y2="384" stroke="#000000" stroke-width="1"/>
	<text x="492" y="398.8" fill="#000000" font-family="Verdana" font-size="12">name</text>
	<text x="492" y="415.8" fill="#000000" font-family="Verdana" font-size="12">email</text>
	<text x="492" y="432.8" fill="#000000" font-family="Verdana" font-size="12">subject</text>
	<text x="492" y="449.8" fill="#000000" font-family="Verdana" font-size="12">message</text>
</g>

<!-- Entity NEWSLETTER -->
<g id="entity-NEWSLETTER">
	<g id="frame-NEWSLETTER">
		<rect x="475" y="18" width="94" height="25" fill="#f1b6da" stroke="#f1b6da" stroke-width="0"/>
		<rect x="475" y="43.0" width="94" height="59" fill="#fde0ef" stroke="#fde0ef" stroke-width="0"/>
		<rect x="475" y="18" width="94" height="84" fill="none" stroke="#de77ae" stroke-width="2"/>
		<line x1="475" y1="43" x2="569" y2="43" stroke="#de77ae" stroke-width="1"/>
	</g>
	<text x="480" y="35.7" fill="#000000" font-family="Verdana" font-size="12">NEWSLETTER</text>
	<text x="480" y="60.8" fill="#000000" font-family="Verdana" font-size="12">code</text>
	<line x1="480" y1="63" x2="509" y2="63" stroke="#000000" stroke-width="1"/>
	<text x="480" y="77.8" fill="#000000" font-family="Verdana" font-size="12">name</text>
	<text x="480" y="94.8" fill="#000000" font-family="Verdana" font-size="12">email</text>
</g>

<!-- Entity CLASSBOOKING -->
<g id="entity-CLASSBOOKING">
	<g id="frame-CLASSBOOKING">
		<rect x="243" y="9" width="110" height="25" fill="#f1b6da" stroke="#f1b6da" stroke-width="0"/>
		<rect x="243" y="34.0" width="110" height="77" fill="#fde0ef" stroke="#fde0ef" stroke-width="0"/>
		<rect x="243" y="9" width="110" height="102" fill="none" stroke="#de77ae" stroke-width="2"/>
		<line x1="243" y1="34" x2="353" y2="34" stroke="#de77ae" stroke-width="1"/>
	</g>
	<text x="248" y="26.7" fill="#000000" font-family="Verdana" font-size="12">CLASSBOOKING</text>
	<text x="248" y="51.7" fill="#000000" font-family="Verdana" font-size="12">code</text>
	<line x1="248" y1="54" x2="277" y2="54" stroke="#000000" stroke-width="1"/>
	<text x="248" y="68.8" fill="#000000" font-family="Verdana" font-size="12">name</text>
	<text x="248" y="85.8" fill="#000000" font-family="Verdana" font-size="12">email</text>
	<text x="248" y="102.8" fill="#000000" font-family="Verdana" font-size="12">class</text>
</g>
</svg>