<?xml version="1.0" standalone="no"?>
<!DOCTYPE svg PUBLIC "-//W3C//DTD SVG 1.1//EN"
"http://www.w3.org/Graphics/SVG/1.1/DTD/svg11.dtd">

<svg width="413" height="449" view_box="0 0 413 449"
xmlns="http://www.w3.org/2000/svg"
xmlns:link="http://www.w3.org/1999/xlink">\n\n<desc>Généré par Mocodo 2.3.7 le Wed, 13 Jul 2022 06:49:25</desc>

<rect id="frame" x="0" y="0" width="413" height="449" fill="#f7f7f7" stroke="none" stroke-width="0"/>

<!-- Association WRITE -->
<line x1="167" y1="254" x2="167" y2="102" stroke="#7fbc41" stroke-width="2"/>
<text x="172.0" y="187" fill="#c51b7d" font-family="Verdana" font-size="12">0,N</text>
<line x1="286" y1="102" x2="167" y2="102" stroke="#7fbc41" stroke-width="2"/>
<text x="217" y="119.0" fill="#c51b7d" font-family="Verdana" font-size="12">1,1</text>
<g id="association-WRITE">
	<path d="M 181 77 a 14 14 90 0 1 14 14 V 102 h -56 V 91 a 14 14 90 0 1 14 -14" fill="#b8e186" stroke="#b8e186" stroke-width="0"/>
	<path d="M 195 102.0 v 11 a 14 14 90 0 1 -14 14 H 153 a 14 14 90 0 1 -14 -14 V 102.0 H 56" fill="#e6f5d0" stroke="#e6f5d0" stroke-width="0"/>
	<rect x="139" y="77" width="56" height="50" fill="none" rx="14" stroke="#7fbc41" stroke-width="2"/>
	<line x1="139" y1="102" x2="195" y2="102" stroke="#7fbc41" stroke-width="1"/>
	<text x="146" y="94.7" fill="#000000" font-family="Verdana" font-size="12">WRITE</text>
</g>

<!-- Association READ -->
<line x1="167" y1="254" x2="56" y2="254" stroke="#7fbc41" stroke-width="2"/>
<text x="106" y="271.0" fill="#c51b7d" font-family="Verdana" font-size="12">0,N</text>
<line x1="56" y1="102" x2="56" y2="254" stroke="#7fbc41" stroke-width="2"/>
<text x="61.0" y="178" fill="#c51b7d" font-family="Verdana" font-size="12">1,1</text>
<g id="association-READ">
	<path d="M 66 229 a 14 14 90 0 1 14 14 V 254 h -48 V 243 a 14 14 90 0 1 14 -14" fill="#b8e186" stroke="#b8e186" stroke-width="0"/>
	<path d="M 80 254.0 v 11 a 14 14 90 0 1 -14 14 H 46 a 14 14 90 0 1 -14 -14 V 254.0 H 48" fill="#e6f5d0" stroke="#e6f5d0" stroke-width="0"/>
	<rect x="32" y="229" width="48" height="50" fill="none" rx="14" stroke="#7fbc41" stroke-width="2"/>
	<line x1="32" y1="254" x2="80" y2="254" stroke="#7fbc41" stroke-width="1"/>
	<text x="39" y="246.7" fill="#000000" font-family="Verdana" font-size="12">READ</text>
</g>

<!-- Association HAS -->
<line x1="381" y1="254" x2="381" y2="102" stroke="#7fbc41" stroke-width="2"/>
<text x="386.0" y="212" fill="#c51b7d" font-family="Verdana" font-size="12">0,N</text>
<line x1="286" y1="102" x2="381" y2="102" stroke="#7fbc41" stroke-width="2"/>
<text x="334" y="119.0" fill="#c51b7d" font-family="Verdana" font-size="12">1,1</text>
<g id="association-HAS">
	<path d="M 387 77 a 14 14 90 0 1 14 14 V 102 h -40 V 91 a 14 14 90 0 1 14 -14" fill="#b8e186" stroke="#b8e186" stroke-width="0"/>
	<path d="M 401 102.0 v 11 a 14 14 90 0 1 -14 14 H 375 a 14 14 90 0 1 -14 -14 V 102.0 H 40" fill="#e6f5d0" stroke="#e6f5d0" stroke-width="0"/>
	<rect x="361" y="77" width="40" height="50" fill="none" rx="14" stroke="#7fbc41" stroke-width="2"/>
	<line x1="361" y1="102" x2="401" y2="102" stroke="#7fbc41" stroke-width="1"/>
	<text x="368" y="94.7" fill="#000000" font-family="Verdana" font-size="12">HAS</text>
</g>

<!-- Association CHECK -->
<line x1="167" y1="254" x2="286" y2="254" stroke="#7fbc41" stroke-width="2"/>
<text x="206" y="271.0" fill="#c51b7d" font-family="Verdana" font-size="12">0,N</text>
<line x1="286" y1="389" x2="286" y2="254" stroke="#7fbc41" stroke-width="2"/>
<text x="291.0" y="330" fill="#c51b7d" font-family="Verdana" font-size="12">1,1</text>
<g id="association-CHECK">
	<path d="M 301 229 a 14 14 90 0 1 14 14 V 254 h -58 V 243 a 14 14 90 0 1 14 -14" fill="#b8e186" stroke="#b8e186" stroke-width="0"/>
	<path d="M 315 254.0 v 11 a 14 14 90 0 1 -14 14 H 271 a 14 14 90 0 1 -14 -14 V 254.0 H 58" fill="#e6f5d0" stroke="#e6f5d0" stroke-width="0"/>
	<rect x="257" y="229" width="58" height="50" fill="none" rx="14" stroke="#7fbc41" stroke-width="2"/>
	<line x1="257" y1="254" x2="315" y2="254" stroke="#7fbc41" stroke-width="1"/>
	<text x="264" y="246.7" fill="#000000" font-family="Verdana" font-size="12">CHECK</text>
</g>

<!-- Association ACCESS -->
<line x1="167" y1="254" x2="167" y2="389" stroke="#7fbc41" stroke-width="2"/>
<text x="172.0" y="330" fill="#c51b7d" font-family="Verdana" font-size="12">0,N</text>
<line x1="56" y1="389" x2="167" y2="389" stroke="#7fbc41" stroke-width="2"/>
<text x="108" y="406.0" fill="#c51b7d" font-family="Verdana" font-size="12">1,1</text>
<g id="association-ACCESS">
	<path d="M 185 364 a 14 14 90 0 1 14 14 V 389 h -64 V 378 a 14 14 90 0 1 14 -14" fill="#b8e186" stroke="#b8e186" stroke-width="0"/>
	<path d="M 199 389.0 v 11 a 14 14 90 0 1 -14 14 H 149 a 14 14 90 0 1 -14 -14 V 389.0 H 64" fill="#e6f5d0" stroke="#e6f5d0" stroke-width="0"/>
	<rect x="135" y="364" width="64" height="50" fill="none" rx="14" stroke="#7fbc41" stroke-width="2"/>
	<line x1="135" y1="389" x2="199" y2="389" stroke="#7fbc41" stroke-width="1"/>
	<text x="142" y="381.7" fill="#000000" font-family="Verdana" font-size="12">ACCESS</text>
</g>

<!-- Entity TAG -->
<g id="entity-TAG">
	<g id="frame-TAG">
		<rect x="358" y="220" width="46" height="25" fill="#f1b6da" stroke="#f1b6da" stroke-width="0"/>
		<rect x="358" y="245.0" width="46" height="43" fill="#fde0ef" stroke="#fde0ef" stroke-width="0"/>
		<rect x="358" y="220" width="46" height="68" fill="none" stroke="#de77ae" stroke-width="2"/>
		<line x1="358" y1="245" x2="404" y2="245" stroke="#de77ae" stroke-width="1"/>
	</g>
	<text x="368" y="237.7" fill="#000000" font-family="Verdana" font-size="12">TAG</text>
	<text x="363" y="262.8" fill="#000000" font-family="Verdana" font-size="12">code</text>
	<line x1="363" y1="265" x2="392" y2="265" stroke="#000000" stroke-width="1"/>
	<text x="363" y="279.8" fill="#000000" font-family="Verdana" font-size="12">name</text>
</g>

<!-- Entity USER -->
<g id="entity-USER">
	<g id="frame-USER">
		<rect x="133" y="195" width="68" height="25" fill="#f1b6da" stroke="#f1b6da" stroke-width="0"/>
		<rect x="133" y="220.0" width="68" height="93" fill="#fde0ef" stroke="#fde0ef" stroke-width="0"/>
		<rect x="133" y="195" width="68" height="118" fill="none" stroke="#de77ae" stroke-width="2"/>
		<line x1="133" y1="220" x2="201" y2="220" stroke="#de77ae" stroke-width="1"/>
	</g>
	<text x="150" y="212.7" fill="#000000" font-family="Verdana" font-size="12">USER</text>
	<text x="138" y="237.7" fill="#000000" font-family="Verdana" font-size="12">code</text>
	<line x1="138" y1="240" x2="167" y2="240" stroke="#000000" stroke-width="1"/>
	<text x="138" y="254.8" fill="#000000" font-family="Verdana" font-size="12">name</text>
	<text x="138" y="271.8" fill="#000000" font-family="Verdana" font-size="12">email</text>
	<text x="138" y="288.8" fill="#000000" font-family="Verdana" font-size="12">password</text>
	<text x="138" y="305.8" fill="#000000" font-family="Verdana" font-size="12">role</text>
</g>

<!-- Entity ARTICLE -->
<g id="entity-ARTICLE">
	<g id="frame-ARTICLE">
		<rect x="243" y="9" width="86" height="25" fill="#f1b6da" stroke="#f1b6da" stroke-width="0"/>
		<rect x="243" y="34.0" width="86" height="161" fill="#fde0ef" stroke="#fde0ef" stroke-width="0"/>
		<rect x="243" y="9" width="86" height="186" fill="none" stroke="#de77ae" stroke-width="2"/>
		<line x1="243" y1="34" x2="329" y2="34" stroke="#de77ae" stroke-width="1"/>
	</g>
	<text x="259" y="26.7" fill="#000000" font-family="Verdana" font-size="12">ARTICLE</text>
	<text x="248" y="51.7" fill="#000000" font-family="Verdana" font-size="12">code</text>
	<line x1="248" y1="54" x2="277" y2="54" stroke="#000000" stroke-width="1"/>
	<text x="248" y="68.7" fill="#000000" font-family="Verdana" font-size="12">mainImg</text>
	<text x="248" y="85.7" fill="#000000" font-family="Verdana" font-size="12">introduction</text>
	<text x="248" y="102.8" fill="#000000" font-family="Verdana" font-size="12">title1</text>
	<text x="248" y="119.8" fill="#000000" font-family="Verdana" font-size="12">img1</text>
	<text x="248" y="136.8" fill="#000000" font-family="Verdana" font-size="12">description1</text>
	<text x="248" y="153.8" fill="#000000" font-family="Verdana" font-size="12">title2</text>
	<text x="248" y="170.8" fill="#000000" font-family="Verdana" font-size="12">img2</text>
	<text x="248" y="187.8" fill="#000000" font-family="Verdana" font-size="12">description2</text>
</g>

<!-- Entity MESSAGE -->
<g id="entity-MESSAGE">
	<g id="frame-MESSAGE">
		<rect x="21" y="43" width="70" height="25" fill="#f1b6da" stroke="#f1b6da" stroke-width="0"/>
		<rect x="21" y="68.0" width="70" height="93" fill="#fde0ef" stroke="#fde0ef" stroke-width="0"/>
		<rect x="21" y="43" width="70" height="118" fill="none" stroke="#de77ae" stroke-width="2"/>
		<line x1="21" y1="68" x2="91" y2="68" stroke="#de77ae" stroke-width="1"/>
	</g>
	<text x="26" y="60.7" fill="#000000" font-family="Verdana" font-size="12">MESSAGE</text>
	<text x="26" y="85.7" fill="#000000" font-family="Verdana" font-size="12">code</text>
	<line x1="26" y1="88" x2="55" y2="88" stroke="#000000" stroke-width="1"/>
	<text x="26" y="102.8" fill="#000000" font-family="Verdana" font-size="12">name</text>
	<text x="26" y="119.8" fill="#000000" font-family="Verdana" font-size="12">email</text>
	<text x="26" y="136.8" fill="#000000" font-family="Verdana" font-size="12">subject</text>
	<text x="26" y="153.8" fill="#000000" font-family="Verdana" font-size="12">message</text>
</g>

<!-- Entity NEWSLETTER -->
<g id="entity-NEWSLETTER">
	<g id="frame-NEWSLETTER">
		<rect x="9" y="347" width="94" height="25" fill="#f1b6da" stroke="#f1b6da" stroke-width="0"/>
		<rect x="9" y="372.0" width="94" height="59" fill="#fde0ef" stroke="#fde0ef" stroke-width="0"/>
		<rect x="9" y="347" width="94" height="84" fill="none" stroke="#de77ae" stroke-width="2"/>
		<line x1="9" y1="372" x2="103" y2="372" stroke="#de77ae" stroke-width="1"/>
	</g>
	<text x="14" y="364.7" fill="#000000" font-family="Verdana" font-size="12">NEWSLETTER</text>
	<text x="14" y="389.8" fill="#000000" font-family="Verdana" font-size="12">code</text>
	<line x1="14" y1="392" x2="43" y2="392" stroke="#000000" stroke-width="1"/>
	<text x="14" y="406.8" fill="#000000" font-family="Verdana" font-size="12">name</text>
	<text x="14" y="423.8" fill="#000000" font-family="Verdana" font-size="12">email</text>
</g>

<!-- Entity CLASSBOOKING -->
<g id="entity-CLASSBOOKING">
	<g id="frame-CLASSBOOKING">
		<rect x="231" y="338" width="110" height="25" fill="#f1b6da" stroke="#f1b6da" stroke-width="0"/>
		<rect x="231" y="363.0" width="110" height="77" fill="#fde0ef" stroke="#fde0ef" stroke-width="0"/>
		<rect x="231" y="338" width="110" height="102" fill="none" stroke="#de77ae" stroke-width="2"/>
		<line x1="231" y1="363" x2="341" y2="363" stroke="#de77ae" stroke-width="1"/>
	</g>
	<text x="236" y="355.7" fill="#000000" font-family="Verdana" font-size="12">CLASSBOOKING</text>
	<text x="236" y="380.7" fill="#000000" font-family="Verdana" font-size="12">code</text>
	<line x1="236" y1="383" x2="265" y2="383" stroke="#000000" stroke-width="1"/>
	<text x="236" y="397.8" fill="#000000" font-family="Verdana" font-size="12">name</text>
	<text x="236" y="414.8" fill="#000000" font-family="Verdana" font-size="12">email</text>
	<text x="236" y="431.8" fill="#000000" font-family="Verdana" font-size="12">class</text>
</g>
</svg>